<svg xmlns="http://www.w3.org/2000/svg" width="512" height="512" viewBox="0 0 512 512"><rect width="512" height="512" rx="104" fill="#1f2430"/><g transform="translate(81.92,81.92) scale(14.506666666666666)" fill="none" stroke="#ff7a3d" stroke-width="2.1" stroke-linecap="round" stroke-linejoin="round"><path d="M4 22h16a2 2 0 0 0 2-2V4a2 2 0 0 0-2-2H8a2 2 0 0 0-2 2v16a2 2 0 0 1-2 2Zm0 0a2 2 0 0 1-2-2v-9c0-1.1.9-2 2-2h2"/><path d="M18 14h-8"/><path d="M15 18h-5"/><path d="M10 6h8v4h-8V6Z"/></g></svg>